<svg width="464" height="84" viewBox="0 0 464 84" fill="none" xmlns="http://www.w3.org/2000/svg">
  <path
    d="M138.229 61.3419L137.288 61.0016L138.229 61.3419ZM64.299 15.0495L63.5919 14.3424L64.299 15.0495ZM462.913 74.291C463.304 74.6815 463.304 75.3147 462.913 75.7052L456.549 82.0691C456.159 82.4597 455.526 82.4597 455.135 82.0691C454.745 81.6786 454.745 81.0455 455.135 80.6549L460.792 74.9981L455.135 69.3412C454.745 68.9507 454.745 68.3175 455.135 67.927C455.526 67.5365 456.159 67.5365 456.549 67.927L462.913 74.291ZM0.64249 27.8722C28.3969 25.3386 66.6626 22.9505 96.1123 26.468C110.811 28.2236 123.476 31.4664 131.529 37.0201C135.576 39.8111 138.509 43.2216 139.908 47.3649C141.307 51.5132 141.127 56.2733 139.169 61.6822L137.288 61.0016C139.13 55.9144 139.236 51.6294 138.013 48.0044C136.788 44.3745 134.188 41.2837 130.393 38.6665C122.763 33.4037 110.512 30.202 95.8751 28.4538C66.6545 24.9637 28.5747 27.3307 0.824307 29.864L0.64249 27.8722ZM139.169 61.6822C134.384 74.9035 124.178 81.5598 112.41 83.3279C100.692 85.0883 87.4235 82.0153 76.2685 75.863C65.1205 69.7146 55.9307 60.404 52.5433 49.5376C49.1297 38.587 51.6728 26.2616 63.5919 14.3424L65.0061 15.7566C53.5291 27.2337 51.2935 38.8078 54.4527 48.9423C57.6381 59.1611 66.3726 68.1212 77.2344 74.1117C88.0891 80.0983 100.916 83.0322 112.112 81.3501C123.258 79.6755 132.787 73.4396 137.288 61.0016L139.169 61.6822ZM63.5919 14.3424C70.3219 7.61243 80.5234 3.61024 93.2069 1.67085C105.903 -0.270538 121.201 -0.162361 138.255 1.42985C172.362 4.61437 213.668 13.7541 255.578 24.5077C297.464 35.2548 340.104 47.6558 376.715 57.334C413.415 67.0358 444.049 73.9981 462.206 73.9981V75.9981C443.737 75.9981 412.834 68.9509 376.204 59.2676C339.484 49.5606 297 37.2007 255.081 26.4449C213.187 15.6954 172.009 6.59014 138.069 3.42118C121.098 1.83665 105.98 1.74098 93.5092 3.64787C81.0254 5.55672 71.3078 9.45491 65.0061 15.7566L63.5919 14.3424Z"
    fill="#EEBF48" />
</svg>
